<svg width="550.752" height="550.752" xmlns="http://www.w3.org/2000/svg" xml:space="preserve" version="1.1">
 <defs>
  <radialGradient r="64%" cy="34%" cx="37%" id="svg_17">
   <stop offset="0" stop-opacity="0.3" stop-color="#FFF"/>
   <stop offset="0.2" stop-opacity="0.2" stop-color="#FFF"/>
   <stop offset="0.6" stop-opacity="0.1" stop-color="#666"/>
   <stop offset="1" stop-opacity="0.1" stop-color="#000"/>
  </radialGradient>
 </defs>
 <g>
  <title>Layer 1</title>
  <path transform="rotate(30.7915, 273.961, 256.662)" id="svg_1" d="m307.74656,209.2091c-1.60523,-1.90092 -2.45336,-4.0655 -2.45336,-6.2577c0,-0.10672 -0.00377,-0.21282 -0.01067,-0.31891l-5.19927,-76.57085c2.73398,-2.16207 4.49678,-5.49997 4.49678,-9.24781l0,-2.89281c0,-0.98875 -0.12304,-1.97374 -0.36662,-2.92671c-0.07847,-0.30573 -0.17013,-0.60518 -0.2712,-0.90024c2.41318,-2.85075 3.78551,-6.48684 3.78551,-10.32069c0,-8.81465 -7.17175,-15.9864 -15.9864,-15.9864c-3.19728,0 -6.2508,0.93979 -8.83599,2.66241c-2.58519,-1.72263 -5.63808,-2.66241 -8.83599,-2.66241s-6.2508,0.93979 -8.83599,2.66241c-2.58519,-1.72263 -5.63808,-2.66241 -8.83599,-2.66241c-8.81465,0 -15.98577,7.17175 -15.98577,15.9864c0,3.84515 1.36542,7.37703 3.63547,10.13801c-0.05399,0.14878 -0.10861,0.2982 -0.15632,0.44886c-0.36411,1.15072 -0.54868,2.34852 -0.54868,3.56076l0,2.89281c0,3.74847 1.76343,7.08637 4.49741,9.24781l-5.19927,76.57085c-0.00691,0.10609 -0.01067,0.21219 -0.01067,0.31891c0,2.1922 -0.84876,4.35616 -2.45399,6.2577c-10.44059,12.36976 -20.97598,38.73523 -20.97598,69.75505c0,19.21004 0.81737,125.01405 0.82553,126.04361c0,14.44269 8.6351,24.52921 20.99984,24.52921l65.87224,0c12.36474,0 20.99984,-10.08653 20.99984,-24.49343c0.00816,-1.06597 0.82553,-106.86998 0.82553,-126.08002c0,-29.47925 -10.55234,-57.40475 -20.97598,-69.75442zm-51.34919,-116.00542c2.0114,0 3.88721,0.91091 5.14653,2.49919c0.8927,1.12686 2.25184,1.78352 3.68946,1.78352s2.79676,-0.65666 3.68946,-1.78352c1.25932,-1.58828 3.13513,-2.49919 5.14653,-2.49919s3.88658,0.91091 5.14653,2.49919c0.8927,1.12686 2.25184,1.78352 3.68946,1.78352s2.79676,-0.65666 3.68946,-1.78352c1.25932,-1.58828 3.13576,-2.49919 5.14653,-2.49919c3.62229,0 6.56908,2.9468 6.56908,6.56971c0,1.18085 -0.32456,2.31211 -0.90086,3.30086c-1.42945,-0.60895 -2.99388,-0.94669 -4.62359,-0.94669l-26.76222,0c-1.6385,-0.27748 -3.37431,0.32142 -4.47983,1.71572c-1.2587,1.58828 -3.13513,2.49919 -5.14653,2.49919c-3.62229,0 -6.56908,-2.9468 -6.56908,-6.56971s2.9468,-6.56908 6.56908,-6.56908zm62.08359,311.80471c0,7.52205 -3.58148,15.11253 -11.58315,15.11253l-65.87224,0c-8.54972,0 -11.58315,-8.14104 -11.58315,-15.14894c-0.00816,-1.06597 -0.82553,-106.8342 -0.82553,-126.00783c0,-28.48673 9.72242,-52.97954 18.7549,-63.68066c0.77091,-0.91279 1.44829,-1.86764 2.03338,-2.85451l29.94695,0c2.60026,0 4.70834,-2.10745 4.70834,-4.70834s-2.10808,-4.70834 -4.70834,-4.70834l-27.2996,0l5.05237,-74.40438l16.85587,0c2.60026,0 4.70834,-2.10745 4.70834,-4.70834s-2.10808,-4.70834 -4.70834,-4.70834l-18.82521,0c-1.3108,0 -2.3774,-1.0666 -2.3774,-2.3774l0,-1.47716c1.16955,0.27371 2.38682,0.4225 3.63861,0.4225c4.0542,0 7.87361,-1.5142 10.80282,-4.21554l25.58577,0c1.08794,0 2.03526,0.73325 2.30332,1.78226c0.04897,0.19147 0.07345,0.39111 0.07345,0.59451l0,2.89281c0,1.3108 -1.06597,2.3774 -2.37677,2.3774l-1.02516,0c-2.60026,0 -4.70834,2.10745 -4.70834,4.70834c0,2.27507 1.61339,4.17285 3.75789,4.61229l5.05864,74.49981l-0.72069,0c-2.60026,0 -4.70834,2.10745 -4.70834,4.70834s2.10808,4.70834 4.70834,4.70834l3.36866,0c0.58446,0.98687 1.26246,1.94172 2.03338,2.85451c9.32064,11.04138 18.75553,36.46141 18.75553,63.68066c0.00063,19.17489 -0.81611,124.94311 -0.82427,126.04549zm-44.51959,-154.56864c-12.06591,0 -23.26801,6.92503 -31.54276,19.50008c-7.87423,11.96673 -12.21156,27.78676 -12.21156,44.54532s4.3367,32.5786 12.21156,44.54532c8.27476,12.57379 19.47622,19.49945 31.54276,19.49945s23.26801,-6.92503 31.54276,-19.49945c7.87423,-11.96735 12.21156,-27.78676 12.21156,-44.54532s-4.3367,-32.57923 -12.21156,-44.54532c-8.27476,-12.57504 -19.47685,-19.50008 -31.54276,-19.50008zm34.33701,64.04477c0,14.93989 -3.78614,28.92116 -10.66095,39.36866c-6.47491,9.84044 -14.88339,15.25943 -23.67606,15.25943s-17.20115,-5.41899 -23.67606,-15.25943c-6.87481,-10.4475 -10.66095,-24.42877 -10.66095,-39.36866s3.78614,-28.92178 10.66095,-39.36929c6.47491,-9.84044 14.88339,-15.25943 23.67606,-15.25943s17.20115,5.41899 23.67606,15.25943c6.87481,10.4475 10.66095,24.43003 10.66095,39.36929z"/>
  <g id="svg_2"/>
  <g id="svg_3"/>
  <g id="svg_4"/>
  <g id="svg_5"/>
  <g id="svg_6"/>
  <g id="svg_7"/>
  <g id="svg_8"/>
  <g id="svg_9"/>
  <g id="svg_10"/>
  <g id="svg_11"/>
  <g id="svg_12"/>
  <g id="svg_13"/>
  <g id="svg_14"/>
  <g id="svg_15"/>
  <g id="svg_16"/>
  <g>
   <path d="m51.24557,66.68036l8.48352,197.24176a146.34066,167.54945 0 1 0 369.03298,0l8.48352,-197.24176l-386.00001,0z" stroke-width="4" stroke="#000" fill="url(#svg_17)"/>
  </g>
 </g>
</svg>